<svg width="20" height="20" viewBox="0 0 20 20" fill="none" xmlns="http://www.w3.org/2000/svg">
<path d="M2.00492 7.25977H5.52098V17.8407H2.00492V7.25977ZM3.78648 2.1593C2.58309 2.1593 1.79688 2.94934 1.79688 3.98629C1.79688 5.00192 2.56008 5.81493 3.74047 5.81493H3.76289C4.9893 5.81493 5.75305 5.00188 5.75305 3.98629C5.73004 2.94934 4.98934 2.1593 3.78648 2.1593ZM14.1539 7.01122C12.2875 7.01122 11.4514 8.03778 10.9849 8.7577V7.25977H7.46781C7.51437 8.25239 7.46781 17.8407 7.46781 17.8407H10.9849V11.9316C10.9849 11.6151 11.0079 11.2998 11.1005 11.0731C11.3551 10.4413 11.9338 9.787 12.9045 9.787C14.178 9.787 14.6866 10.7577 14.6866 12.1795V17.8407H18.2031V11.7734C18.2031 8.5234 16.4687 7.01122 14.1539 7.01122Z" fill="white"/>
</svg>
